<svg xmlns="http://www.w3.org/2000/svg" viewBox="0 0 168.5 36"><defs><style>.cls-1{fill:#342e37;}</style></defs><title>vobuco-positivo</title><g id="Layer_2" data-name="Layer 2"><g id="Layer_7" data-name="Layer 7"><path class="cls-1" d="M5.28,10.8l5.28,19.92h3.12L19,10.8h5.28L17.52,35.28H6.72L0,10.8Z"/><path class="cls-1" d="M37.78,10.32A12.56,12.56,0,0,1,50.5,23a12.72,12.72,0,0,1-25.44,0A12.56,12.56,0,0,1,37.78,10.32Zm0,20.88c4.37,0,7.44-3.17,7.44-8.16s-3.07-8.16-7.44-8.16S30.34,18.05,30.34,23,33.41,31.2,37.78,31.2ZM33.37,0a2.77,2.77,0,0,1,2.88,2.88,2.88,2.88,0,0,1-5.76,0A2.77,2.77,0,0,1,33.37,0Zm8.88,0a2.77,2.77,0,0,1,2.88,2.88,2.88,2.88,0,1,1-5.76,0A2.77,2.77,0,0,1,42.25,0Z"/><path class="cls-1" d="M54.32,1.68h5V13.92h.24a10,10,0,0,1,2-1.77,9.67,9.67,0,0,1,5.71-1.83c6.48,0,11.52,5,11.52,12.72s-5,12.72-11.52,12.72A9.75,9.75,0,0,1,61.57,34a9.11,9.11,0,0,1-2-1.83h-.24v3.12h-5Zm12,29.52c4.37,0,7.2-2.83,7.2-8.16s-2.83-8.16-7.2-8.16c-4.08,0-7,2.83-7,8.16S62.24,31.2,66.32,31.2Z"/><path class="cls-1" d="M82.56,10.8h5V25c0,4.37,1.92,6.24,5.76,6.24s6.72-2.88,6.72-7.2V10.8h5V35.28h-5V31.92h-.24a7.32,7.32,0,0,1-1.78,1.92,9.53,9.53,0,0,1-5.9,1.92c-6,0-9.6-3.55-9.6-10.32Z"/><path class="cls-1" d="M121,10.8A11.07,11.07,0,0,1,130.05,15a12.4,12.4,0,0,1,2.21,4.17h-2.88a8.84,8.84,0,0,0-1.78-2.88A8.36,8.36,0,0,0,121,13.44c-4.8,0-8.88,4.08-8.88,9.84s4.08,9.84,8.88,9.84A8.47,8.47,0,0,0,127.8,30a10.16,10.16,0,0,0,1.82-3.12h2.88a13.09,13.09,0,0,1-2.26,4.47A11.37,11.37,0,0,1,121,35.76c-6.48,0-11.76-5.28-11.76-12.48S114.5,10.8,121,10.8Z"/><path class="cls-1" d="M148.25,10.8a12.05,12.05,0,0,1,12.24,12.48,12.24,12.24,0,1,1-24.48,0A12.05,12.05,0,0,1,148.25,10.8Zm0,22.32c5.23,0,9.36-4.08,9.36-9.84s-4.13-9.84-9.36-9.84-9.36,4.08-9.36,9.84S143,33.12,148.25,33.12Z"/><path class="cls-1" d="M166.1,31.2a2.22,2.22,0,0,1,2.4,2.4,2.22,2.22,0,0,1-2.4,2.4,2.26,2.26,0,0,1-2.4-2.4A2.22,2.22,0,0,1,166.1,31.2Z"/></g></g></svg>